<?xml version="1.0" standalone="no"?>
<!DOCTYPE svg PUBLIC "-//W3C//DTD SVG 1.1//EN" "http://www.w3.org/Graphics/SVG/1.1/DTD/svg11.dtd" >
<svg xmlns="http://www.w3.org/2000/svg">
<metadata>Generated by IcoMoon</metadata>
<defs>
<font id="icomoon" horiz-adv-x="1024">
<font-face units-per-em="1024" ascent="960" descent="-64" />
<missing-glyph horiz-adv-x="1024" />
<glyph unicode="&#x20;" horiz-adv-x="512" d="" />
<glyph unicode="&#xe600;" glyph-name="location" horiz-adv-x="640" d="M320 960c-177 0-320-143-320-320s160-416 320-704c160 288 320 527 320 704s-143 320-320 320zM320 512c-71 0-128 57-128 128s57 128 128 128 128-57 128-128-57-128-128-128z" />
<glyph unicode="&#xe601;" glyph-name="youtube" d="M731.429 438.857q0 21.143-17.143 30.857l-292.571 182.857q-17.714 11.429-37.143 1.143-18.857-10.286-18.857-32v-365.714q0-21.714 18.857-32 9.143-4.571 17.714-4.571 11.429 0 19.429 5.714l292.571 182.857q17.143 9.714 17.143 30.857zM1024 438.857q0-54.857-0.571-85.714t-4.857-78-12.857-84.286q-9.143-41.714-39.429-70.286t-70.857-33.143q-126.857-14.286-383.429-14.286t-383.429 14.286q-40.571 4.571-71.143 33.143t-39.714 70.286q-8 37.143-12.286 84.286t-4.857 78-0.571 85.714 0.571 85.714 4.857 78 12.857 84.286q9.143 41.714 39.429 70.286t70.857 33.143q126.857 14.286 383.429 14.286t383.429-14.286q40.571-4.571 71.143-33.143t39.714-70.286q8-37.143 12.286-84.286t4.857-78 0.571-85.714z" />
<glyph unicode="&#xe602;" glyph-name="menu" d="M128 170.667h768v85.333h-768v-85.333zM128 384h768v85.333h-768v-85.333zM128 682.667v-85.333h768v85.333h-768z" />
<glyph unicode="&#xe603;" glyph-name="social-facebook" d="M554.667 512h128v-128h-128v-298.667h-128v298.667h-128v128h128v53.547c0 50.731 15.957 114.816 47.701 149.845 31.744 35.115 71.381 52.608 118.869 52.608h89.429v-128h-89.6c-21.248 0-38.4-17.152-38.4-38.357v-89.643z" />
<glyph unicode="&#xe604;" glyph-name="social-twitter" d="M805.973 639.488c34.475 21.163 57.301 50.048 68.48 86.784-33.536-17.792-66.944-29.995-100.309-36.736-29.995 32.256-67.968 48.64-113.493 48.64-44.501 0-82.091-15.616-112.768-45.995-30.507-30.592-45.909-67.755-45.909-111.147 0-13.184 1.664-24.96 4.992-34.944-131.243 4.48-239.872 58.923-325.461 163.712-14.507-25.643-21.76-51.755-21.76-78.763 0-55.509 23.424-99.499 70.187-131.797-26.667 2.261-50.176 9.003-70.187 20.053 0-39.637 11.648-72.747 34.987-101.888 23.424-28.843 53.504-47.232 90.24-55.083-13.312-3.413-27.349-5.035-41.771-5.035-13.312 0-22.741 1.109-28.331 3.541 9.813-32.299 28.331-58.496 55.083-78.549 26.667-20.139 57.344-30.763 91.819-31.701-56.832-44.587-121.813-66.645-195.328-66.645-18.005 0-30.763 0.256-38.485 1.621 72.405-47.019 153.003-70.357 242.176-70.357 91.264 0 171.904 23.125 242.091 69.376 70.187 45.995 121.984 102.741 155.264 169.557 33.451 66.731 50.005 136.192 50.005 208.725v19.968c32.341 24.32 58.496 51.712 78.507 81.963-29.013-12.501-59.008-20.992-90.027-25.301z" />
<glyph unicode="&#xe605;" glyph-name="close" d="M810.667 768q18.333 0 30.5-12.167t12.167-30.5q0-18-12.333-30.333l-268.667-268.333 268.667-268.333q12.333-12.333 12.333-30.333 0-18.333-12.167-30.5t-30.5-12.167q-18 0-30.333 12.333l-268.333 268.667-268.333-268.667q-12.333-12.333-30.333-12.333-18.333 0-30.5 12.167t-12.167 30.5q0 18 12.333 30.333l268.667 268.333-268.667 268.333q-12.333 12.333-12.333 30.333 0 18.333 12.167 30.5t30.5 12.167q18 0 30.333-12.333l268.333-268.667 268.333 268.667q12.333 12.333 30.333 12.333z" />
<glyph unicode="&#xe606;" glyph-name="arrow-right" d="M389.171 285.798c-13.722-13.875-13.722-36.301 0-50.125 13.67-13.875 35.891-13.875 49.613 0l196.096 200.038c13.722 13.875 13.722 36.301 0 50.125l-196.096 200.090c-13.722 13.875-35.891 13.875-49.613 0s-13.722-36.25-0.051-50.074l160.819-175.053-160.768-175.002z" />
<glyph unicode="&#xe607;" glyph-name="arrow-left" d="M634.829 285.798c13.722-13.875 13.722-36.301 0-50.125-13.722-13.875-35.891-13.875-49.613 0l-196.096 200.038c-13.722 13.875-13.722 36.301 0 50.125l196.096 200.090c13.722 13.875 35.891 13.875 49.613 0s13.722-36.25 0-50.125l-160.768-175.002 160.768-175.002z" />
<glyph unicode="&#xe608;" glyph-name="arrow-down" d="M687.002 583.629c13.875 13.722 36.301 13.722 50.125 0 13.875-13.722 13.875-35.891 0-49.613l-200.038-196.096c-13.875-13.722-36.301-13.722-50.125 0l-200.090 196.096c-13.824 13.722-13.824 35.891 0 49.613 13.875 13.722 36.25 13.722 50.125 0l175.002-160.768 175.002 160.768z" />
<glyph unicode="&#xe609;" glyph-name="arrow-up" d="M336.947 337.971c-13.875-13.722-36.25-13.722-50.125 0-13.824 13.722-13.875 35.891 0 49.664l200.090 195.994c13.875 13.722 36.301 13.722 50.125 0l200.090-196.045c13.875-13.773 13.875-35.942 0-49.664s-36.25-13.722-50.125 0l-175.053 160.819-175.002-160.768z" />
<glyph unicode="&#xe60a;" glyph-name="phone" horiz-adv-x="805" d="M804.571 242.286q0-15.429-5.714-40.286t-12-39.143q-12-28.571-69.714-60.571-53.714-29.143-106.286-29.143-15.429 0-30 2t-32.857 7.143-27.143 8.286-31.714 11.714-28 10.286q-56 20-100 47.429-73.143 45.143-151.143 123.143t-123.143 151.143q-27.429 44-47.429 100-1.714 5.143-10.286 28t-11.714 31.714-8.286 27.143-7.143 32.857-2 30q0 52.571 29.143 106.286 32 57.714 60.571 69.714 14.286 6.286 39.143 12t40.286 5.714q8 0 12-1.714 10.286-3.429 30.286-43.429 6.286-10.857 17.143-30.857t20-36.286 17.714-30.571q1.714-2.286 10-14.286t12.286-20.286 4-16.286q0-11.429-16.286-28.571t-35.429-31.429-35.429-30.286-16.286-26.286q0-5.143 2.857-12.857t4.857-11.714 8-13.714 6.571-10.857q43.429-78.286 99.429-134.286t134.286-99.429q1.143-0.571 10.857-6.571t13.714-8 11.714-4.857 12.857-2.857q10.286 0 26.286 16.286t30.286 35.429 31.429 35.429 28.571 16.286q8 0 16.286-4t20.286-12.286 14.286-10q14.286-8.571 30.571-17.714t36.286-20 30.857-17.143q40-20 43.429-30.286 1.714-4 1.714-12z" />
<glyph unicode="&#xe60e;" glyph-name="staff" horiz-adv-x="1126" d="M768 611.84c0-84.831-68.769-153.6-153.6-153.6s-153.6 68.769-153.6 153.6c0 84.831 68.769 153.6 153.6 153.6s153.6-68.769 153.6-153.6zM337.92 765.44c0-79.176-64.184-143.36-143.36-143.36s-143.36 64.184-143.36 143.36c0 79.176 64.184 143.36 143.36 143.36s143.36-64.184 143.36-143.36zM1075.2 181.76c0-113.108-91.692-204.8-204.8-204.8s-204.8 91.692-204.8 204.8c0 113.108 91.692 204.8 204.8 204.8s204.8-91.692 204.8-204.8z" />
<glyph unicode="&#xe612;" glyph-name="search" d="M1000.64 70.848l-184.896 184.896c50.688 72.576 80.64 160.704 80.64 255.936 0 247.424-200.64 448-448 448s-448-200.576-448-448c0-247.424 200.576-448 448-448 95.232 0 183.424 29.952 256 80.64l184.896-184.896c30.72-30.72 80.64-30.72 111.36 0s30.72 80.576 0 111.424zM448.32 191.616c-176.704 0-320 143.232-320 320s143.296 320 320 320c176.768 0 320-143.232 320-320 0.064-176.768-143.168-320-320-320z" />
<glyph unicode="&#xe61d;" glyph-name="envelope" d="M0 149.334c0-47.146 38.186-85.334 85.334-85.334h853.334c47.146 0 85.334 38.186 85.334 85.334l-0.002 576c0 47.146-38.186 85.334-85.334 85.334l-853.332-0.002c-47.146 0-85.334-38.186-85.334-85.334v-575.998zM314.026 436.694l-195.2 196.48c-16.192 16.214-16.192 42.454 0 58.666 16.234 16.214 42.474 16.214 58.666 0l311.468-311.872c12.586-12.374 33.302-12.374 45.674 0l311.872 311.872c16.214 16.214 42.454 16.214 58.666 0 16.214-16.214 16.214-42.454 0-58.666l-195.414-196.48 195.414-195.178c16.214-16.214 16.214-42.454 0-58.666s-42.454-16.214-58.666 0l-195.2 194.986c0 0-60.992-62.080-72.086-73.174-17.3-16.876-41.194-27.328-67.22-27.328-26.454 0-50.346 10.666-67.626 27.968-11.306 11.094-71.894 72.512-71.894 72.512l-195.008-194.986c-16.192-16.214-42.432-16.214-58.666 0-16.192 16.214-16.192 42.454 0 58.666l195.22 195.2z" />
<glyph unicode="&#xe900;" glyph-name="correo" horiz-adv-x="1289" d="M1160.533 960h-1031.585c-72.059 0-128.948-56.889-128.948-128.948v-766.104c0-72.059 56.889-128.948 128.948-128.948h1035.378c72.059 0 128.948 56.889 128.948 128.948v766.104c-3.793 72.059-60.681 128.948-132.741 128.948zM1236.385 64.948c0-41.719-34.133-75.852-72.059-75.852h-1035.378c-41.719 0-72.059 34.133-72.059 75.852v766.104c0 41.719 34.133 75.852 72.059 75.852h1035.378c41.719 0 72.059-34.133 72.059-75.852v-766.104zM830.578 459.378l265.481 265.481c11.378 11.378 11.378 26.548 0 37.926s-26.548 11.378-37.926 0l-413.393-417.185-405.807 405.807c-11.378 11.378-26.548 11.378-37.926 0-11.378-7.585-11.378-26.548 0-37.926l265.481-265.481-257.896-257.896c-11.378-11.378-11.378-26.548 0-37.926 3.793-3.793 11.378-7.585 18.963-7.585s15.17 3.793 18.963 7.585l257.896 257.896 121.363-121.363c3.793-3.793 11.378-7.585 18.963-7.585s15.17 3.793 18.963 7.585l128.948 128.948 265.481-265.481c3.793-3.793 11.378-7.585 18.963-7.585s15.17 3.793 18.963 7.585c11.378 11.378 11.378 26.548 0 37.926l-265.481 269.274z" />
<glyph unicode="&#xe901;" glyph-name="telefono" horiz-adv-x="731" d="M731.037 50.995c2.738 21.904-5.476 43.807-19.166 60.235l-147.85 147.85c-21.904 21.904-57.497 27.38-84.877 10.952l-79.401-43.807c-16.428-8.214-35.594-5.476-49.283 10.952-32.856 43.807-65.711 90.353-93.091 142.374s-52.021 101.305-73.925 153.326c-5.476 16.428 0 38.332 16.428 46.545l79.401 43.807c27.38 16.428 41.070 49.283 35.594 79.401l-49.283 202.61c-5.476 21.904-21.904 41.070-41.070 49.283-21.904 8.214-46.545 8.214-65.711-5.476l-82.139-46.545c-60.235-32.856-84.877-114.995-71.187-229.989 10.952-109.519 57.497-240.941 128.684-364.15 71.187-125.947 156.064-232.727 246.417-298.439 43.807-32.856 84.877-54.759 123.209-65.711 41.070-10.952 79.401-8.214 112.257 8.214l82.139 46.545c16.428 10.952 30.118 30.118 32.856 52.021zM676.278 26.353l-13.69-8.214-125.947 123.209c-5.476 5.476-16.428 5.476-24.642 0-5.476-5.476-5.476-16.428 0-24.642l117.733-114.995-38.332-21.904c-46.545-24.642-117.733-5.476-197.134 54.759-84.877 65.711-167.016 167.016-235.465 290.225-68.449 120.471-112.257 246.417-123.209 353.198-8.214 98.567 10.952 169.754 57.497 194.396l38.332 21.904 5.476-32.856c2.738-5.476 5.476-10.952 13.69-13.69 2.738 0 5.476 0 8.214 0 8.214 2.738 13.69 10.952 10.952 21.904l-8.214 43.807 13.69 8.214c10.952 5.476 19.166 5.476 30.118 2.738 2.738 0 2.738 0 5.476-2.738 10.952-5.476 19.166-13.69 19.166-24.642l49.283-202.61c2.738-16.428-2.738-32.856-19.166-41.070l-35.594-21.904-35.594 164.278c-2.738 8.214-13.69 13.69-21.904 10.952-8.214 0-13.69-10.952-13.69-19.166l38.332-172.492-10.952-5.476c-30.118-16.428-43.807-54.759-32.856-87.615 24.642-54.759 49.283-109.519 79.401-161.54s62.973-101.305 95.829-147.85c21.904-27.38 60.235-35.594 93.091-19.166l10.952 5.476 32.856-30.118c2.738-2.738 5.476-2.738 8.214-5.476 5.476-2.738 13.69 0 16.428 5.476 5.476 5.476 5.476 16.428 0 24.642l-27.38 27.38 38.332 21.904c13.69 8.214 32.856 5.476 43.807-5.476l147.85-147.85c8.214-8.214 10.952-19.166 10.952-30.118-2.738-16.428-10.952-27.38-21.904-32.856z" />
<glyph unicode="&#xe902;" glyph-name="pin" horiz-adv-x="664" d="M330.831 960c-181.169 0-330.831-149.662-330.831-330.831 0-165.415 112.903-378.092 207.426-530.379 7.877-7.877 21.005-13.128 28.882-5.251 10.503 5.251 13.128 18.379 5.251 28.882-165.415 265.19-199.549 420.103-199.549 506.749 0 160.164 131.282 288.821 288.821 288.821s288.821-131.282 288.821-288.821c0-259.938-304.574-656.41-307.2-659.036-7.877-7.877-5.251-21.005 2.626-28.882 2.626-2.626 7.877-5.251 13.128-5.251s13.128 2.626 15.754 7.877c13.128 15.754 315.077 412.226 315.077 685.292 5.251 181.169-144.41 330.831-328.205 330.831zM330.831 734.195c10.503 0 21.005 10.503 21.005 21.005s-10.503 21.005-21.005 21.005c-81.395 0-147.036-65.641-147.036-147.036s65.641-147.036 147.036-147.036 147.036 65.641 147.036 147.036c0 31.508-10.503 63.015-28.882 89.272-7.877 7.877-21.005 10.503-28.882 5.251-7.877-7.877-10.503-21.005-5.251-28.882 13.128-18.379 21.005-39.385 21.005-63.015 0-57.764-47.262-105.026-105.026-105.026s-105.026 47.262-105.026 105.026 47.262 102.4 105.026 102.4z" />
<glyph unicode="&#xe903;" glyph-name="cruce-manos" horiz-adv-x="1323" d="M582.862 273.341l-15.969-15.969 27.945-27.945c1.996 0 1.996 0 3.992-1.996 5.988-3.992 13.973-7.984 19.961-15.969 1.996-3.992 3.992-5.988 3.992-9.981l81.84-81.84c5.988 5.988 11.977 11.977 15.969 17.965l-137.731 135.735zM666.698 718.472l-5.988 5.988-5.988-3.992-5.988 3.992-9.981 9.981-19.961 21.957c-5.988 5.988-15.969 9.981-23.953 7.984l-37.926-3.992-63.875-5.988-61.879 61.879 15.969 15.969 53.895-51.899 91.821 7.984c13.973 1.996 31.938-5.988 41.918-15.969l41.918-41.918-9.981-11.977zM143.719 528.842l-15.969-15.969 57.887-57.887c5.988 5.988 9.981 9.981 15.969 17.965l-57.887 55.891zM666.698 77.723l-9.981 9.981c-15.969 15.969-39.922 23.953-61.879 19.961 3.992 21.957-1.996 45.91-17.965 63.875l-11.977 9.981c-17.965 17.965-39.922 23.953-63.875 19.961 1.996 7.984 1.996 15.969 0 23.953v0c0 0 0 0 0 1.996-1.996 13.973-9.981 27.945-19.961 37.926l-9.981 9.981c-17.965 17.965-39.922 23.953-63.875 19.961 3.992 21.957-1.996 45.91-19.961 61.879l-7.984 7.984c-21.957 21.957-55.891 25.949-83.836 11.977l-95.813 95.813c-5.988-5.988-9.981-11.977-15.969-17.965l109.786-109.786 7.984 5.988c17.965 13.973 43.914 11.977 59.883-3.992l9.981-9.981c15.969-15.969 17.965-41.918 3.992-59.883l-5.988-7.984 15.969-15.969 7.984 5.988c17.965 13.973 43.914 13.973 61.879-3.992l9.981-9.981c5.988-5.988 11.977-15.969 11.977-23.953v-1.996c1.996-11.977-1.996-25.949-9.981-35.93l-5.988-7.984 17.965-13.973 7.984 5.988c17.965 13.973 45.91 13.973 61.879-3.992l9.981-9.981c15.969-15.969 17.965-43.914 3.992-61.879l-5.988-7.984 15.969-15.969 7.984 5.988c17.965 13.973 43.914 11.977 59.883-3.992l9.981-9.981c15.969-15.969 17.965-39.922 5.988-57.887 7.984-1.996 15.969-3.992 23.953-5.988 11.977 25.949 5.988 59.883-13.973 81.84zM720.593-30.066c-11.977 0-23.953 3.992-31.938 13.973l-11.977 11.977c0 0 0 0 0 0-7.984 1.996-15.969 5.988-23.953 5.988 0 0 0-1.996-1.996-1.996l-5.988-7.984 25.949-25.949c13.973-13.973 29.942-19.961 49.903-19.961 0 0 0 0 1.996 0 0 7.984 0 15.969-1.996 23.953zM800.437 31.813c-9.981 3.992-17.965 7.984-25.949 15.969l-9.981 9.981c7.984-7.984 13.973-19.961 13.973-31.938s-3.992-23.953-13.973-31.938l-9.981-9.981c-7.984-7.984-19.961-13.973-31.938-13.973 0 0 0 0 0 0 1.996-7.984 1.996-15.969 1.996-23.953 17.965 0 35.93 7.984 47.906 19.961l9.981 9.981c13.973 13.973 19.961 29.942 19.961 49.903-1.996 1.996-1.996 3.992-1.996 5.988zM884.273 155.571l-169.669 169.669-15.969-17.965 169.669-169.669c7.984-7.984 13.973-19.961 13.973-31.938s-3.992-23.953-13.973-31.938l-9.981-9.981c-7.984-7.984-19.961-13.973-31.938-13.973s-23.953 3.992-31.938 13.973l-211.587 209.591-15.969-15.969 135.735-135.735c5.988 5.988 11.977 11.977 15.969 17.965l61.879-61.879c11.977-11.977 17.965-27.945 19.961-43.914 7.984-1.996 15.969-3.992 23.953-3.992 17.965 0 35.93 7.984 49.903 19.961l9.981 9.981c13.973 13.973 19.961 29.942 19.961 49.903 0 15.969-7.984 33.934-19.961 45.91zM718.596 137.606c-3.992-5.988-9.981-11.977-15.969-17.965l71.86-71.86c7.984-7.984 15.969-11.977 25.949-15.969-1.996 15.969-7.984 31.938-19.961 43.914l-61.879 61.879zM924.195 109.661c-17.965 0-35.93 5.988-49.903 19.961l-215.579 217.575 15.969 15.969 217.575-217.575c17.965-17.965 47.906-17.965 65.871 0l9.981 9.981c17.965 17.965 17.965 47.906 0 65.871l-29.942 31.938-9.981 7.984-179.649 179.649 15.969 15.969 215.579-215.579c27.945-27.945 27.945-71.86 0-97.809l-9.981-9.981c-9.981-15.969-27.945-23.953-45.91-23.953zM501.021 486.924c5.988-3.992 15.969-3.992 21.957-5.988l33.934 123.758c-7.984 3.992-13.973 7.984-21.957 11.977l-33.934-129.747zM826.386 756.398c0 0 1.996 0 1.996 1.996 0 0 0 0 1.996 0 0 0 0 0 0 0 1.996 1.996 3.992 1.996 5.988 1.996l55.891 55.891-15.969 17.965-53.895-53.895-91.821 7.984c-13.973 1.996-31.938-5.988-41.918-15.969l-153.7-153.7v-1.996c7.984-3.992 13.973-7.984 21.957-11.977v0l121.762 123.758 25.949 25.949c5.988 5.988 15.969 9.981 23.953 7.984l97.809-5.988c0 0 0 0 0 0zM558.908 419.057c-11.977-1.996-33.934 1.996-39.922 11.977-1.996 3.992-3.992 7.984-1.996 15.969 1.996 15.969 5.988 27.945 5.988 27.945l1.996 5.988c-7.984 1.996-15.969 1.996-21.957 5.988l-3.992-3.992c0-1.996-3.992-15.969-5.988-33.934-1.996-13.973 1.996-23.953 7.984-31.938 13.973-19.961 47.906-21.957 61.879-19.961 35.93 3.992 69.864 29.942 87.828 69.864-5.988 3.992-13.973 9.981-21.957 9.981-15.969-31.938-41.918-53.895-69.864-57.887zM650.729 550.799l-15.969-57.887c-1.996-5.988-3.992-9.981-5.988-15.969 7.984-1.996 13.973-5.988 21.957-9.981 3.992 5.988 5.988 11.977 7.984 17.965l13.973 53.895c-7.984 1.996-15.969 7.984-21.957 11.977v0zM1179.696 528.842l-151.704-151.704-273.466 275.462-101.801-101.801c5.988-5.988 13.973-9.981 19.961-13.973v0l81.84 81.84 275.462-275.462 167.673 167.673-17.965 17.965zM389.24 353.185l-9.981 11.977c-13.973 13.973-29.942 19.961-49.903 19.961-15.969 0-29.942-5.988-43.914-13.973 0 0 0 0 0 0l15.969-17.965c0 0 0 0 0 0 7.984 5.988 17.965 9.981 27.945 9.981 11.977 0 23.953-3.992 31.938-13.973l9.981-9.981c15.969-15.969 17.965-41.918 3.992-59.883-1.996-1.996-1.996-1.996-3.992-3.992l-23.953-23.953c-7.984-7.984-19.961-13.973-31.938-13.973s-23.953 3.992-31.938 13.973l-3.992 3.992-15.969-17.965 5.988-5.988c13.973-13.973 29.942-19.961 49.903-19.961 17.965 0 35.93 7.984 49.903 19.961l23.953 23.953c1.996 1.996 3.992 3.992 5.988 5.988 17.965 27.945 15.969 67.867-9.981 91.821zM275.462 259.368c-17.965 17.965-17.965 47.906 0 65.871l23.953 23.953c1.996 1.996 1.996 1.996 3.992 3.992l-15.969 17.965c-1.996-1.996-3.992-3.992-5.988-3.992l-21.957-25.949c-27.945-27.945-27.945-71.86 0-97.809l5.988-5.988 15.969 17.965-5.988 3.992zM411.197 121.637c-17.965 0-35.93 7.984-49.903 19.961l-9.981 9.981c-13.973 13.973-19.961 29.942-19.961 49.903 0 17.965 7.984 35.93 19.961 49.903l23.953 23.953c1.996 1.996 3.992 3.992 5.988 5.988 11.977 9.981 27.945 15.969 43.914 15.969 17.965 0 35.93-7.984 49.903-19.961l9.981-9.981c9.981-9.981 15.969-23.953 19.961-37.926 0 0 0 0 0-1.996v0c1.996-19.961-1.996-37.926-13.973-53.895-1.996-1.996-3.992-3.992-5.988-5.988l-25.949-25.949c-11.977-13.973-29.942-19.961-47.906-19.961zM423.173 269.349c-9.981 0-19.961-3.992-27.945-9.981-1.996-1.996-1.996-1.996-3.992-3.992l-23.953-23.953c-7.984-7.984-13.973-19.961-13.973-31.938s3.992-23.953 13.973-31.938l9.981-9.981c7.984-7.984 19.961-13.973 31.938-13.973s23.953 3.992 31.938 13.973l23.953 23.953c1.996 1.996 1.996 1.996 3.992 3.992 7.984 9.981 11.977 21.957 9.981 35.93v1.996c-1.996 9.981-5.988 17.965-11.977 23.953l-9.981 9.981c-9.981 7.984-21.957 11.977-33.934 11.977zM574.877 171.54l-9.981 9.981c-13.973 13.973-29.942 19.961-49.903 19.961-15.969 0-31.938-5.988-43.914-15.969-1.996-1.996-3.992-3.992-5.988-3.992l-9.981-9.981c5.988-5.988 11.977-11.977 15.969-17.965l9.981 9.981c1.996 1.996 1.996 1.996 3.992 3.992 7.984 5.988 17.965 9.981 29.942 9.981s23.953-3.992 31.938-13.973l9.981-9.981c15.969-15.969 17.965-43.914 3.992-61.879 0-1.996-1.996-1.996-3.992-3.992l-23.953-23.953c-7.984-7.984-19.961-13.973-31.938-13.973s-23.953 3.992-31.938 13.973l-1.996 1.996c-5.988-5.988-11.977-9.981-17.965-15.969l1.996-1.996c13.973-13.973 29.942-19.961 49.903-19.961 17.965 0 35.93 7.984 49.903 19.961l23.953 23.953c1.996 1.996 3.992 3.992 3.992 5.988 23.953 27.945 21.957 67.867-3.992 93.817zM469.084 67.743l-9.981 7.984c-7.984 7.984-13.973 19.961-13.973 31.938s3.992 23.953 13.973 31.938l11.977 11.977c-3.992 5.988-9.981 11.977-15.969 17.965l-13.973-13.973c-13.973-13.973-19.961-29.942-19.961-49.903 0-17.965 7.984-35.93 19.961-49.903l7.984-7.984c7.984 9.981 13.973 13.973 19.961 19.961zM652.725-0.125c-1.996-1.996-1.996-3.992-3.992-3.992l-23.953-23.953c-7.984-7.984-19.961-13.973-31.938-13.973s-23.953 3.992-31.938 13.973l-3.992 3.992c-5.988-5.988-11.977-9.981-15.969-17.965l3.992-3.992c13.973-13.973 29.942-19.961 49.903-19.961 17.965 0 35.93 7.984 49.903 19.961l23.953 23.953c1.996 1.996 3.992 3.992 5.988 5.988-9.981 5.988-13.973 13.973-21.957 15.969 0 1.996 0 1.996 0 0zM666.698 77.723l-9.981 9.981c-13.973 13.973-29.942 19.961-49.903 19.961-15.969 0-29.942-5.988-41.918-13.973-1.996-1.996-3.992-3.992-5.988-5.988l-23.953-23.953c-13.973-13.973-19.961-29.942-19.961-49.903 0-17.965 7.984-35.93 19.961-49.903l5.988-5.988c3.992 5.988 9.981 11.977 15.969 17.965l-5.988 5.988c-7.984 7.984-13.973 19.961-13.973 31.938s3.992 23.953 13.973 31.938l23.953 23.953c1.996 1.996 1.996 1.996 3.992 3.992 7.984 5.988 17.965 9.981 27.945 9.981 11.977 0 23.953-3.992 31.938-13.973l9.981-9.981c15.969-15.969 17.965-39.922 3.992-59.883 5.988-3.992 11.977-11.977 17.965-15.969 0 0 0 0 0 0 21.957 29.942 19.961 69.864-3.992 93.817zM670.69 1.871c-1.996 1.996-5.988 3.992-7.984 3.992-3.992 0-5.988-1.996-7.984-3.992s-3.992-5.988-3.992-7.984c0-3.992 1.996-5.988 3.992-7.984s5.988-5.988 7.984-7.984l1.996 1.996c1.996 1.996 3.992 3.992 5.988 5.988 0 0 0 0 0 0 1.996 1.996 3.992 5.988 5.988 7.984-1.996 3.992-3.992 5.988-5.988 7.984zM1025.996 193.497c-17.965 0-35.93 7.984-49.903 19.961l-231.548 231.548 15.969 15.969 231.548-231.548c7.984-7.984 19.961-13.973 31.938-13.973s23.953 3.992 31.938 13.973l9.981 9.981c17.965 17.965 17.965 47.906 0 65.871l-245.52 247.517 15.969 15.969 247.517-247.517c27.945-27.945 27.945-71.86 0-97.809l-9.981-9.981c-11.977-11.977-29.942-19.961-47.906-19.961zM449.123 884.148l-61.879 61.879c-7.984 7.984-19.961 13.973-31.938 13.973s-23.953-3.992-33.934-13.973l-129.747-129.747c3.992-5.988 9.981-11.977 15.969-17.965l131.743 131.743c3.992 3.992 9.981 5.988 15.969 5.988s11.977-1.996 15.969-5.988l61.879-61.879c9.981-9.981 9.981-23.953 0-33.934v0c5.988-5.988 11.977-11.977 17.965-15.969v0c15.969 17.965 15.969 47.906-1.996 65.871zM125.754 526.846c-5.988-3.992-11.977-5.988-17.965-5.988s-11.977 1.996-15.969 5.988l-61.879 61.879c-3.992 3.992-5.988 9.981-5.988 15.969s1.996 11.977 5.988 15.969l175.657 175.657c-5.988 5.988-9.981 11.977-15.969 17.965l-177.653-177.653c-7.984-7.984-13.973-19.961-13.973-33.934s3.992-23.953 13.973-33.934l61.879-61.879c7.984-7.984 19.961-13.973 33.934-13.973v0c11.977 0 23.953 3.992 33.934 13.973l307.4 311.392c-5.988 5.988-11.977 11.977-17.965 15.969l-305.404-307.4zM109.786 562.776c-11.977 0-23.953 3.992-31.938 13.973-17.965 15.969-17.965 45.91 0 63.875 7.984 7.984 19.961 13.973 31.938 13.973s23.953-3.992 31.938-13.973c17.965-17.965 17.965-45.91 0-63.875-7.984-9.981-19.961-13.973-31.938-13.973zM109.786 630.643c-5.988 0-11.977-1.996-15.969-5.988-7.984-7.984-7.984-21.957 0-31.938 3.992-3.992 9.981-5.988 15.969-5.988s11.977 1.996 15.969 5.988c7.984 7.984 7.984 21.957 0 31.938-5.988 1.996-9.981 5.988-15.969 5.988zM760.515 452.99c0-4.41-3.575-7.984-7.984-7.984s-7.984 3.575-7.984 7.984c0 4.41 3.575 7.984 7.984 7.984s7.984-3.575 7.984-7.984zM752.53 441.014c-5.988 0-11.977 5.988-11.977 11.977s5.988 11.977 11.977 11.977c5.988 0 11.977-5.988 11.977-11.977s-5.988-11.977-11.977-11.977zM752.53 456.982c-1.996 0-1.996-1.996-1.996-1.996 0-1.996 1.996-1.996 1.996-1.996 1.996 0 1.996 1.996 1.996 1.996 1.996 0 0 1.996-1.996 1.996zM674.682 355.181c0-4.41-3.575-7.984-7.984-7.984s-7.984 3.575-7.984 7.984c0 4.41 3.575 7.984 7.984 7.984s7.984-3.575 7.984-7.984zM666.698 343.205c-5.988 0-11.977 5.988-11.977 11.977s5.988 11.977 11.977 11.977c5.988 0 11.977-5.988 11.977-11.977s-3.992-11.977-11.977-11.977zM666.698 359.173c-1.996 0-1.996-1.996-1.996-1.996 0-1.996 1.996-1.996 1.996-1.996 1.996 0 1.996 1.996 1.996 1.996 1.996 0 0 1.996-1.996 1.996zM582.862 265.357c0-4.41-3.575-7.984-7.984-7.984s-7.984 3.575-7.984 7.984c0 4.41 3.575 7.984 7.984 7.984s7.984-3.575 7.984-7.984zM574.877 253.38c-5.988 0-11.977 5.988-11.977 11.977s5.988 11.977 11.977 11.977 11.977-5.988 11.977-11.977c-1.996-5.988-5.988-11.977-11.977-11.977zM574.877 267.353c-1.996 0-1.996-1.996-1.996-1.996 0-1.996 1.996-1.996 1.996-1.996 1.996 0 1.996 1.996 1.996 1.996 0 1.996-1.996 1.996-1.996 1.996zM283.446 247.392c0-6.614-5.362-11.977-11.977-11.977s-11.977 5.362-11.977 11.977c0 6.614 5.362 11.977 11.977 11.977s11.977-5.362 11.977-11.977zM23.953 606.69c0-6.614-5.362-11.977-11.977-11.977s-11.977 5.362-11.977 11.977c0 6.614 5.362 11.977 11.977 11.977s11.977-5.362 11.977-11.977zM119.766 508.881c0-6.614-5.362-11.977-11.977-11.977s-11.977 5.362-11.977 11.977c0 6.614 5.362 11.977 11.977 11.977s11.977-5.362 11.977-11.977zM307.4 361.17c0-6.614-5.362-11.977-11.977-11.977s-11.977 5.362-11.977 11.977c0 6.614 5.362 11.977 11.977 11.977s11.977-5.362 11.977-11.977zM143.719 582.737c0-6.614-5.362-11.977-11.977-11.977s-11.977 5.362-11.977 11.977c0 6.614 5.362 11.977 11.977 11.977s11.977-5.362 11.977-11.977zM135.735 532.834c-5.988 0-11.977-5.988-11.977-11.977 0-3.992 1.996-5.988 3.992-7.984s3.992-5.988 7.984-7.984c1.996 1.996 3.992 3.992 7.984 5.988l7.984 9.981c-3.992 3.992-7.984 7.984-7.984 9.981-1.996 0-5.988 1.996-7.984 1.996zM381.255 149.583c0-6.614-5.362-11.977-11.977-11.977s-11.977 5.362-11.977 11.977c0 6.614 5.362 11.977 11.977 11.977s11.977-5.362 11.977-11.977zM471.080 61.754c0-6.614-5.362-11.977-11.977-11.977s-11.977 5.362-11.977 11.977c0 6.614 5.362 11.977 11.977 11.977s11.977-5.362 11.977-11.977zM477.068 163.556c0-6.614-5.362-11.977-11.977-11.977s-11.977 5.362-11.977 11.977c0 6.614 5.362 11.977 11.977 11.977s11.977-5.362 11.977-11.977zM558.908-30.066c0-6.614-5.362-11.977-11.977-11.977s-11.977 5.362-11.977 11.977c0 6.614 5.362 11.977 11.977 11.977s11.977-5.362 11.977-11.977zM722.589 129.622c0-6.614-5.362-11.977-11.977-11.977s-11.977 5.362-11.977 11.977c0 6.614 5.362 11.977 11.977 11.977s11.977-5.362 11.977-11.977zM820.398 219.446c-3.992-5.988-9.981-11.977-15.969-17.965l71.86-71.86c7.984-7.984 15.969-11.977 25.949-15.969-1.996 15.969-7.984 31.938-19.961 43.914l-61.879 61.879zM824.39 211.462c0-6.614-5.362-11.977-11.977-11.977s-11.977 5.362-11.977 11.977c0 6.614 5.362 11.977 11.977 11.977s11.977-5.362 11.977-11.977zM918.207 305.279c-3.992-5.988-9.981-11.977-15.969-17.965l71.86-71.86c7.984-7.984 15.969-11.977 25.949-15.969-1.996 15.969-7.984 31.938-19.961 43.914l-61.879 61.879zM922.199 297.294c0-6.614-5.362-11.977-11.977-11.977s-11.977 5.362-11.977 11.977c0 6.614 5.362 11.977 11.977 11.977s11.977-5.362 11.977-11.977zM840.359 562.776c0-6.614-5.362-11.977-11.977-11.977s-11.977 5.362-11.977 11.977c0 6.614 5.362 11.977 11.977 11.977s11.977-5.362 11.977-11.977zM1037.973 353.185c1.996 1.996 5.988 3.992 7.984 7.984l-15.969 15.969c-3.992-3.992-7.984-7.984-7.984-7.984-3.992-1.996-3.992-3.992-3.992-7.984 0-1.996 0-3.992 1.996-5.988l3.992-3.992c1.996-1.996 3.992-1.996 5.988-1.996s5.988 1.996 7.984 3.992zM652.725 720.468c1.996-1.996 5.988-3.992 7.984-3.992s3.992 0 5.988 1.996l3.992 3.992c1.996 1.996 1.996 3.992 1.996 5.988 0 3.992-1.996 5.988-3.992 7.984s-3.992 5.988-7.984 7.984l-15.969-15.969c3.992-3.992 7.984-7.984 7.984-7.984zM522.979 482.932c0-6.614-5.362-11.977-11.977-11.977s-11.977 5.362-11.977 11.977c0 6.614 5.362 11.977 11.977 11.977s11.977-5.362 11.977-11.977zM674.682 542.815c0-6.614-5.362-11.977-11.977-11.977s-11.977 5.362-11.977 11.977c0 6.614 5.362 11.977 11.977 11.977s11.977-5.362 11.977-11.977zM558.908 612.678c0-6.614-5.362-11.977-11.977-11.977s-11.977 5.362-11.977 11.977c0 6.614 5.362 11.977 11.977 11.977s11.977-5.362 11.977-11.977zM840.359 768.374c0-6.614-5.362-11.977-11.977-11.977s-11.977 5.362-11.977 11.977c0 6.614 5.362 11.977 11.977 11.977s11.977-5.362 11.977-11.977zM734.565-42.043c0-6.614-5.362-11.977-11.977-11.977s-11.977 5.362-11.977 11.977c0 6.614 5.362 11.977 11.977 11.977s11.977-5.362 11.977-11.977zM205.598 462.971c0-6.614-5.362-11.977-11.977-11.977s-11.977 5.362-11.977 11.977c0 6.614 5.362 11.977 11.977 11.977s11.977-5.362 11.977-11.977zM209.591 804.304c0-6.614-5.362-11.977-11.977-11.977s-11.977 5.362-11.977 11.977c0 6.614 5.362 11.977 11.977 11.977s11.977-5.362 11.977-11.977zM447.127 834.246c-1.996 1.996-3.992 3.992-7.984 1.996-5.988 0-11.977-5.988-11.977-11.977 0-3.992 1.996-5.988 3.992-7.984s5.988-5.988 7.984-7.984l11.977 11.977c1.996 1.996 3.992 3.992 3.992 5.988-1.996 3.992-5.988 5.988-7.984 7.984zM874.292 886.144l61.879 61.879c7.984 7.984 19.961 13.973 33.934 13.973 11.977 0 23.953-3.992 33.934-13.973l129.747-129.747c-3.992-5.988-9.981-11.977-15.969-17.965l-131.743 131.743c-3.992 3.992-9.981 5.988-15.969 5.988s-11.977-1.996-15.969-5.988l-61.879-61.879c-9.981-9.981-9.981-23.953 0-33.934v0c-5.988-5.988-11.977-11.977-17.965-15.969v0c-17.965 15.969-17.965 45.91 0 65.871zM1199.657 526.846c3.992-3.992 9.981-5.988 15.969-5.988s11.977 1.996 15.969 5.988l61.879 61.879c3.992 3.992 5.988 9.981 5.988 15.969s-1.996 11.977-5.988 15.969l-175.657 177.653c5.988 5.988 9.981 11.977 15.969 17.965l177.653-177.653c7.984-7.984 13.973-19.961 13.973-33.934 0-11.977-3.992-23.953-13.973-33.934l-61.879-61.879c-7.984-7.984-19.961-13.973-33.934-13.973v0c-11.977 0-23.953 3.992-33.934 13.973l-305.404 309.396c5.988 5.988 11.977 11.977 17.965 15.969l305.404-307.4zM1183.688 576.749c-17.965 17.965-17.965 45.91 0 63.875 7.984 7.984 19.961 13.973 31.938 13.973s23.953-3.992 31.938-13.973c17.965-17.965 17.965-45.91 0-63.875-7.984-7.984-19.961-13.973-31.938-13.973s-23.953 3.992-31.938 13.973zM1199.657 622.659c-7.984-7.984-7.984-21.957 0-31.938 3.992-3.992 9.981-5.988 15.969-5.988s11.977 1.996 15.969 5.988c7.984 7.984 7.984 21.957 0 31.938-3.992 3.992-9.981 5.988-15.969 5.988-5.988 1.996-11.977 0-15.969-5.988zM1227.602 508.881c0-6.614-5.362-11.977-11.977-11.977s-11.977 5.362-11.977 11.977c0 6.614 5.362 11.977 11.977 11.977s11.977-5.362 11.977-11.977zM982.082 948.023c0-6.614-5.362-11.977-11.977-11.977s-11.977 5.362-11.977 11.977c0 6.614 5.362 11.977 11.977 11.977s11.977-5.362 11.977-11.977zM1251.556 630.643c0-6.614-5.362-11.977-11.977-11.977s-11.977 5.362-11.977 11.977c0 6.614 5.362 11.977 11.977 11.977s11.977-5.362 11.977-11.977zM1189.676 532.834c5.988 0 11.977-5.988 11.977-11.977 0-3.992-1.996-5.988-3.992-7.984s-3.992-5.988-7.984-7.984c-1.996 1.996-3.992 3.992-7.984 5.988l-9.981 9.981c3.992 3.992 7.984 7.984 7.984 9.981 3.992 1.996 5.988 1.996 9.981 1.996zM1139.774 804.304c0-6.614-5.362-11.977-11.977-11.977s-11.977 5.362-11.977 11.977c0 6.614 5.362 11.977 11.977 11.977s11.977-5.362 11.977-11.977zM876.288 834.246c1.996 1.996 3.992 3.992 7.984 1.996 5.988 0 11.977-5.988 11.977-11.977 0-3.992-1.996-5.988-3.992-7.984s-5.988-5.988-7.984-7.984l-7.984 7.984-1.996 3.992c-1.996 1.996-3.992 3.992-3.992 5.988 1.996 3.992 5.988 5.988 5.988 7.984z" />
<glyph unicode="&#xe904;" glyph-name="medalla" horiz-adv-x="719" d="M576 602.353c0 120.471-97.882 216.471-216.471 216.471-120.471 1.882-216.471-96-216.471-216.471s97.882-216.471 216.471-216.471c120.471 0 216.471 96 216.471 216.471zM359.529 406.588c-107.294 0-195.765 88.471-195.765 195.765s88.471 195.765 195.765 195.765c107.294 0 195.765-88.471 195.765-195.765s-88.471-195.765-195.765-195.765zM717.176 45.176l-141.176 310.588c3.765 7.529 7.529 13.176 11.294 18.824 7.529 7.529 20.706 13.176 33.882 16.941 18.824 7.529 37.647 15.059 48.941 32 9.412 16.941 7.529 37.647 3.765 56.471-1.882 15.059-3.765 28.235-1.882 37.647s11.294 20.706 18.824 30.118c13.176 15.059 26.353 32 26.353 52.706s-13.176 37.647-26.353 52.706c-9.412 11.294-16.941 20.706-18.824 30.118-1.882 11.294 0 24.471 1.882 37.647 3.765 20.706 5.647 39.529-3.765 56.471-11.294 20.706-30.118 28.235-48.941 35.765-13.176 5.647-26.353 9.412-33.882 16.941s-13.176 20.706-16.941 33.882c-7.529 18.824-15.059 37.647-32 48.941-7.529 3.765-16.941 7.529-28.235 7.529-9.412 0-18.824-1.882-28.235-3.765s-18.824-1.882-26.353-1.882c-3.765 0-9.412 0-11.294 1.882-9.412 1.882-20.706 11.294-30.118 18.824-16.941 11.294-33.882 24.471-54.588 24.471s-37.647-13.176-52.706-26.353c-11.294-9.412-20.706-16.941-30.118-18.824-3.765 0-7.529-1.882-11.294-1.882-7.529 0-16.941 1.882-26.353 1.882-9.412 1.882-18.824 3.765-28.235 3.765-11.294 0-20.706-1.882-28.235-7.529-18.824-9.412-26.353-28.235-33.882-47.059-5.647-13.176-9.412-26.353-16.941-33.882s-20.706-11.294-33.882-16.941c-18.824-7.529-37.647-15.059-48.941-32-9.412-16.941-7.529-37.647-3.765-56.471 1.882-15.059 3.765-28.235 1.882-37.647s-11.294-20.706-18.824-30.118c-13.176-16.941-26.353-33.882-26.353-54.588s13.176-37.647 26.353-52.706c9.412-11.294 16.941-20.706 18.824-30.118 1.882-11.294 0-24.471-1.882-37.647-3.765-20.706-5.647-39.529 3.765-56.471s30.118-24.471 48.941-32c13.176-5.647 26.353-9.412 33.882-16.941 5.647-5.647 7.529-11.294 11.294-18.824l-141.176-312.471c-1.882-3.765-1.882-7.529 0-11.294s5.647-5.647 9.412-3.765l124.235 16.941 69.647-105.412c1.882-3.765 5.647-5.647 9.412-5.647 0 0 0 0 0 0 3.765 0 7.529 1.882 9.412 5.647l135.529 293.647 135.529-293.647c1.882-3.765 5.647-5.647 9.412-5.647 0 0 0 0 0 0 3.765 0 7.529 1.882 9.412 5.647l69.647 105.412 124.235-16.941c3.765 0 7.529 1.882 9.412 3.765 1.882 3.765 1.882 7.529 0 11.294zM212.706-30.118l-62.118 94.118c-1.882 3.765-5.647 5.647-9.412 5.647l-112.941-15.059 126.118 274.824c5.647-13.176 13.176-26.353 26.353-33.882 7.529-3.765 16.941-7.529 28.235-7.529 9.412 0 18.824 1.882 28.235 3.765s18.824 1.882 26.353 1.882c3.765 0 9.412 0 11.294-1.882 9.412-1.882 20.706-11.294 30.118-18.824 11.294-9.412 22.588-16.941 33.882-22.588l-126.118-280.471zM359.529 267.294c-13.176 0-26.353 9.412-39.529 20.706-11.294 9.412-24.471 18.824-39.529 22.588-5.647 1.882-11.294 1.882-16.941 1.882-9.412 0-18.824-1.882-28.235-3.765s-16.941-1.882-26.353-1.882c-7.529 0-13.176 1.882-16.941 3.765-11.294 5.647-16.941 20.706-22.588 37.647-5.647 15.059-11.294 30.118-22.588 39.529-11.294 11.294-26.353 16.941-39.529 22.588-16.941 5.647-32 13.176-37.647 22.588-5.647 11.294-3.765 26.353-1.882 43.294 1.882 15.059 5.647 32 0 47.059-3.765 15.059-13.176 26.353-22.588 39.529-11.294 13.176-20.706 26.353-20.706 39.529s9.412 26.353 20.706 39.529c9.412 11.294 18.824 24.471 22.588 39.529s1.882 30.118 0 47.059c-1.882 16.941-5.647 32 1.882 43.294 5.647 11.294 20.706 16.941 37.647 22.588 15.059 5.647 30.118 11.294 39.529 22.588 11.294 11.294 16.941 26.353 22.588 39.529 5.647 16.941 13.176 32 22.588 37.647 3.765 1.882 9.412 3.765 16.941 3.765s16.941-1.882 26.353-1.882c9.412-1.882 18.824-3.765 28.235-3.765 5.647 0 13.176 0 16.941 1.882 15.059 3.765 26.353 13.176 39.529 22.588 13.176 11.294 26.353 20.706 39.529 20.706s26.353-9.412 39.529-20.706c11.294-9.412 24.471-18.824 39.529-22.588 5.647-1.882 11.294-1.882 16.941-1.882 9.412 0 18.824 1.882 28.235 3.765s16.941 1.882 26.353 1.882c7.529 0 13.176-1.882 16.941-3.765 11.294-5.647 16.941-20.706 22.588-37.647 5.647-15.059 11.294-30.118 22.588-39.529 11.294-11.294 26.353-16.941 39.529-22.588 16.941-5.647 32-13.176 37.647-22.588 5.647-11.294 3.765-26.353 1.882-43.294-1.882-15.059-5.647-32 0-47.059 3.765-15.059 13.176-26.353 22.588-39.529 11.294-13.176 20.706-26.353 20.706-39.529s-9.412-26.353-20.706-39.529c-9.412-11.294-18.824-24.471-22.588-39.529s-1.882-30.118 0-47.059c1.882-16.941 5.647-32-1.882-43.294-5.647-11.294-20.706-16.941-37.647-22.588-15.059-5.647-30.118-11.294-39.529-22.588-11.294-11.294-16.941-26.353-22.588-39.529-5.647-16.941-13.176-32-22.588-37.647-3.765-1.882-9.412-3.765-16.941-3.765s-16.941 1.882-26.353 1.882c-9.412 1.882-18.824 3.765-28.235 3.765-5.647 0-13.176 0-16.941-1.882-15.059-3.765-26.353-13.176-39.529-22.588-13.176-11.294-26.353-20.706-39.529-20.706zM577.882 67.765c-3.765 0-7.529-1.882-9.412-5.647l-62.118-94.118-128 278.588c13.176 5.647 24.471 13.176 33.882 22.588 11.294 9.412 20.706 16.941 30.118 18.824 3.765 0 7.529 1.882 11.294 1.882 7.529 0 16.941-1.882 26.353-1.882 9.412-1.882 18.824-3.765 28.235-3.765 11.294 0 20.706 1.882 28.235 7.529 13.176 7.529 20.706 20.706 26.353 35.765l124.235-274.824-109.176 15.059zM496.941 679.529c-3.765 3.765-11.294 5.647-15.059 1.882l-175.059-143.059-67.765 77.176c-3.765 3.765-11.294 5.647-15.059 1.882s-5.647-11.294-1.882-15.059l75.294-86.588c1.882-1.882 5.647-3.765 7.529-3.765s5.647 0 7.529 1.882l182.588 150.588c5.647 3.765 5.647 9.412 1.882 15.059z" />
<glyph unicode="&#xe905;" glyph-name="a-right" horiz-adv-x="551" d="M61.505 948.747c-5.626 5.626-16.879 11.253-28.132 11.253s-16.879-5.626-28.132-11.253c-16.879-16.879-16.879-39.385 0-50.637l450.11-450.11-450.11-450.11c-16.879-16.879-16.879-39.385 0-50.637s39.385-16.879 50.637 0l483.868 478.242c16.879 16.879 16.879 39.385 0 50.637l-478.242 472.615z" />
<glyph unicode="&#xe906;" glyph-name="escudo" horiz-adv-x="863" d="M430.349-64v0c-9.606 0-19.212 1.921-28.818 7.685-90.296 44.188-390.004 213.253-390.004 468.773 0 0 0 0 0 1.921 0 11.527-3.842 142.169-11.527 343.895 0 23.054 17.291 42.266 40.345 44.188 201.726 9.606 320.841 105.666 361.186 147.932 7.685 7.685 19.212 11.527 28.818 11.527 11.527-1.921 23.054-5.764 30.739-13.448 44.188-42.266 169.066-140.248 363.107-149.854 23.054-1.921 40.345-21.133 40.345-44.188-3.842-97.981-11.527-330.447-13.448-343.895-15.37-257.441-303.55-422.664-391.925-468.773-7.685-3.842-19.212-5.764-28.818-5.764zM34.582 412.458c0-242.071 290.101-405.373 378.477-449.561 5.764-1.921 11.527-3.842 19.212-3.842v0c5.764 0 13.448 1.921 19.212 3.842 84.533 44.188 363.107 203.647 378.477 449.561 0 15.37 9.606 267.047 13.448 343.895 0 9.606-7.685 19.212-19.212 19.212-203.647 11.527-332.368 113.351-378.477 155.617-3.842 3.842-7.685 5.764-13.448 5.764s-9.606-1.921-13.448-5.764c-44.188-42.266-169.066-144.090-376.555-153.696-9.606 0-19.212-9.606-19.212-19.212 1.921-44.188 3.842-130.642 7.685-205.568 1.921-42.266 1.921-74.927 3.842-97.981 0-13.448 0-23.054 0-30.739 0-5.764 0-9.606 0-11.527v0zM11.527 418.221c0-1.921 0-1.921-1.921-3.842 1.921 1.921 1.921 1.921 1.921 3.842zM23.054 423.985c-1.921 0-1.921 0-3.842 0 0 0 1.921 0 3.842 0zM395.767 283.737c-11.527 0-21.133 3.842-28.818 9.606l-107.587 90.296c-11.527 9.606-13.448 26.897-3.842 38.424l28.818 38.424c3.842 5.764 11.527 9.606 19.212 11.527s15.37-1.921 21.133-5.764l61.478-49.951c1.921 0 1.921-1.921 3.842-1.921 0 0 1.921 0 3.842 1.921l147.932 172.908c5.764 5.764 11.527 9.606 19.212 9.606s15.37-1.921 21.133-7.685l34.582-32.66c11.527-9.606 11.527-26.897 1.921-38.424-32.66-38.424-140.248-169.066-188.278-222.859-9.606-7.685-21.133-13.448-34.582-13.448zM305.471 448.961c0 0 0 0 0 0-1.921 0-3.842-1.921-3.842-1.921l-28.818-38.424c-1.921-1.921-1.921-5.764 0-7.685l107.587-90.296c3.842-3.842 9.606-5.764 15.37-5.764s13.448 1.921 17.291 7.685c48.030 53.794 155.617 182.514 188.278 220.938 1.921 1.921 1.921 5.764 0 7.685l-36.503 34.582c-1.921 0-1.921 1.921-3.842 1.921s-1.921 0-3.842-1.921l-147.932-172.908c-5.764-5.764-13.448-9.606-21.133-9.606-5.764 0-13.448 1.921-17.291 5.764l-61.478 49.951c0 0-1.921 0-3.842 0z" />
<glyph unicode="&#xe907;" glyph-name="brazo" horiz-adv-x="726" d="M711.004 272.181c9.66 144.906-32.845 289.811-69.555 386.415s-75.351 162.294-83.079 175.819c-1.932 11.592-13.525 42.506-48.302 57.962-7.728 3.864-46.37 28.981-92.74 48.302-73.419 28.981-127.517 27.049-162.294-5.796-46.37-42.506-67.623-81.147-61.826-113.992 0-17.389 7.728-27.049 13.525-34.777 0-3.864 0-7.728 0-11.592 3.864-19.321 21.253-36.709 50.234-54.098 59.894-34.777 106.264-13.525 135.245 1.932 1.932 1.932 5.796 1.932 7.728 3.864 3.864 1.932 5.796 1.932 7.728 0 5.796-1.932 9.66-11.592 11.592-17.389-5.796-28.981-32.845-195.14-13.525-307.2-52.166 17.389-98.536 13.525-133.313 3.864-40.574-9.66-71.487-28.981-85.011-38.642-28.981 11.592-63.758 13.525-100.468 7.728 0 0 0 0 0 0 0 7.728-7.728 15.457-15.457 15.457h-56.030c-9.66 0-15.457-7.728-15.457-15.457v-365.162c0-7.728 7.728-15.457 15.457-15.457s15.457 7.728 15.457 15.457v347.774h23.185c3.864-25.117 11.592-83.079 30.913-148.77 30.913-102.4 73.419-183.547 125.585-241.509h-195.14c-9.66 0-15.457-7.728-15.457-15.457 0-9.66 7.728-15.457 15.457-15.457h237.645c5.796 0 13.525 3.864 15.457 9.66s0 13.525-3.864 17.389c0 0 0 0 0 0 32.845 13.525 61.826 30.913 85.011 52.166 5.796 0 11.592 0 17.389 0 27.049 0 48.302 3.864 54.098 5.796 7.728 1.932 17.389 1.932 25.117 3.864 69.555 13.525 121.721 46.37 150.702 94.672 40.574-5.796 104.332 0 125.585 59.894 9.66 38.642 1.932 69.555-11.592 92.74zM689.751 191.034c-19.321-54.098-96.604-36.709-98.536-36.709-7.728 1.932-15.457-1.932-17.389-7.728-56.030-110.128-226.053-96.604-227.985-96.604s-3.864 0-5.796 0c-25.117 1.932-54.098 9.66-75.351 27.049-7.728 5.796-17.389 3.864-23.185-3.864s-3.864-17.389 3.864-23.185c19.321-13.525 40.574-23.185 61.826-28.981-19.321-13.525-42.506-25.117-67.623-34.777-98.536 108.196-135.245 282.083-146.838 355.502 27.049 5.796 61.826 7.728 90.808-7.728 5.796-1.932 11.592-1.932 17.389 1.932 0 0 34.777 25.117 83.079 38.642 48.302 11.592 94.672 7.728 139.109-13.525 0 0 1.932 0 1.932 0 13.525-5.796 27.049-15.457 38.642-25.117 3.864-1.932 5.796-3.864 9.66-3.864 5.796 0 9.66 1.932 13.525 5.796 5.796 7.728 3.864 17.389-3.864 23.185-13.525 9.66-25.117 17.389-38.642 25.117-28.981 110.128 9.66 318.792 9.66 320.725s0 5.796 0 7.728c0 3.864-9.66 30.913-30.913 40.574-7.728 3.864-19.321 5.796-34.777 0-1.932-1.932-5.796-1.932-9.66-3.864-28.981-13.525-59.894-28.981-106.264-3.864-30.913 17.389-34.777 30.913-34.777 32.845 1.932 3.864 3.864 7.728 1.932 11.592 0 3.864-3.864 7.728-7.728 11.592 0 0-7.728 5.796-9.66 17.389s3.864 40.574 52.166 86.943c50.234 48.302 173.887-17.389 218.325-46.37 0 0 1.932-1.932 1.932-1.932 25.117-9.66 28.981-34.777 28.981-36.709s1.932-3.864 1.932-5.796c1.932-1.932 154.566-255.034 150.702-512 0 0-1.932 1.932-1.932 1.932-7.728 5.796-17.389 3.864-23.185-3.864s-3.864-17.389 3.864-23.185c5.796 1.932 54.098-32.845 34.777-88.875zM440.513 260.589c-88.875-86.943-239.577-54.098-241.509-54.098-7.728 1.932-17.389-3.864-19.321-11.592s3.864-17.389 11.592-19.321c3.864 0 34.777-7.728 77.283-7.728 57.962 0 137.177 11.592 193.208 69.555 5.796 5.796 5.796 17.389 0 23.185s-15.457 5.796-21.253 0zM517.796 668.257c-7.728-3.864-11.592-13.525-9.66-21.253 0-1.932 48.302-123.653 21.253-264.694-1.932-9.66 3.864-17.389 13.525-19.321 1.932 0 1.932 0 3.864 0 7.728 0 13.525 5.796 15.457 13.525 27.049 150.702-21.253 276.287-23.185 282.083-3.864 9.66-13.525 13.525-21.253 9.66z" />
<glyph unicode="&#xe908;" glyph-name="reloj" horiz-adv-x="1144" d="M812.825 424.093h-185.276c-11.953 0-21.914 9.961-21.914 21.914v288.872c0 11.953 9.961 21.914 21.914 21.914s21.914-9.961 21.914-21.914v-264.965h163.362c11.953 0 21.914-9.961 21.914-21.914 1.992-13.946-7.969-23.907-21.914-23.907zM625.556-64c-137.463 0-266.957 53.79-362.584 149.416-95.626 97.619-149.416 225.121-149.416 362.584 0 11.953 9.961 21.914 21.914 21.914 0 0 0 0 0 0 11.953 0 21.914-9.961 21.914-21.914 0-123.518 47.813-241.058 135.471-328.716s207.191-135.471 332.7-137.463c258.988 0 470.163 211.175 470.163 468.171 0 19.922-1.992 39.844-3.984 59.767-1.992 11.953 7.969 23.907 19.922 25.899s23.907-7.969 25.899-19.922c1.992-21.914 3.984-43.829 3.984-65.743 0-282.895-231.097-512-515.984-513.992 1.992 0 0 0 0 0zM1093.728 585.463c-5.977 0-11.953 1.992-15.938 5.977s-5.977 9.961-5.977 15.938c0 5.977 1.992 11.953 5.977 15.938 7.969 7.969 23.907 7.969 31.875 0 3.984-3.984 5.977-9.961 5.977-15.938s-1.992-11.953-5.977-15.938c-3.984-3.984-9.961-5.977-15.938-5.977zM1047.907 681.089c-7.969 0-15.938 3.984-19.922 9.961-85.665 139.455-235.082 223.128-398.444 223.128 0 0 0 0-1.992 0-129.494 0-256.996-55.782-344.654-151.409-7.969-9.961-23.907-9.961-31.875-1.992-9.961 7.969-9.961 23.907-1.992 31.875 99.611 107.58 237.074 167.346 380.514 167.346 0 0 0 0 1.992 0 179.3 0 342.661-91.642 436.296-245.043 5.977-9.961 3.984-23.907-7.969-31.875-3.984 0-7.969-1.992-11.953-1.992zM251.019 424.093c0 0 0 0 0 0l-229.105 5.977c-7.969 0-15.938 5.977-19.922 13.946s-1.992 15.938 1.992 23.907l125.51 165.354c3.984 5.977 11.953 9.961 19.922 7.969 7.969 0 13.946-3.984 17.93-11.953l99.611-169.339c3.984-3.984 5.977-9.961 5.977-15.938 1.992-9.961-7.969-19.922-21.914-19.922 0 0 0 0 0 0zM67.735 475.891l141.447-3.984-63.751 107.58-77.696-103.595z" />
<glyph unicode="&#xe909;" glyph-name="comillas-left" horiz-adv-x="1104" d="M475.022 914.489v-184.889c0-25.6-19.911-45.511-45.511-45.511-88.178 0-136.533-91.022-145.067-270.222h145.067c25.6 0 45.511-19.911 45.511-45.511v-389.689c0-25.6-19.911-45.511-45.511-45.511h-384c-25.6 2.844-45.511 22.756-45.511 48.356v389.689c0 85.333 8.533 164.978 25.6 236.089 17.067 68.267 45.511 130.844 79.644 184.889 36.978 51.2 82.489 93.867 136.533 122.311s116.622 45.511 187.733 45.511c25.6 0 45.511-19.911 45.511-45.511zM1058.133 686.933c25.6 0 45.511 19.911 45.511 45.511v182.044c0 25.6-22.756 45.511-45.511 45.511-71.111 0-133.689-14.222-187.733-45.511-54.044-28.444-99.556-71.111-136.533-125.156-36.978-51.2-62.578-113.778-79.644-187.733-17.067-71.111-25.6-147.911-25.6-236.089v-389.689c0-25.6 19.911-45.511 45.511-45.511h384c25.6 0 45.511 19.911 45.511 45.511v392.533c0 25.6-19.911 45.511-45.511 45.511h-142.222c5.689 179.2 54.044 273.067 142.222 273.067z" />
<glyph unicode="&#xe90a;" glyph-name="candado" horiz-adv-x="835" d="M156.142 595.064c-9.078 0-18.156 7.262-18.156 18.156v107.121c0 130.723 125.277 239.66 279.603 239.66s279.603-108.936 279.603-241.475v-103.489c0-9.078-7.262-18.156-18.156-18.156s-18.156 7.262-18.156 18.156v103.489c0 114.383-108.936 205.163-245.106 205.163-132.539 1.816-241.475-90.78-241.475-205.163v-107.121c0-9.078-9.078-16.34-18.156-16.34zM268.709 613.22c-9.078 0-18.156 7.262-18.156 18.156v87.149c0 76.255 74.44 139.801 167.035 139.801s167.035-63.546 167.035-139.801v-85.333c0-9.078-7.262-18.156-18.156-18.156s-18.156 7.262-18.156 18.156v85.333c0 58.099-58.099 105.305-130.723 105.305s-130.723-47.206-130.723-105.305v-87.149c0-10.894-9.078-18.156-18.156-18.156zM757.106-64h-679.035c-43.574 0-78.071 34.496-78.071 78.071v502.922c0 38.128 27.234 70.809 63.546 76.255l205.163 41.759c0 0 0 0 0 0 49.021 9.078 98.043 12.709 148.879 12.709s99.858-3.631 148.879-12.709c0 0 0 0 0 0l201.532-41.759c38.128-7.262 63.546-38.128 63.546-76.255v-502.922c3.631-43.574-30.865-78.071-74.44-78.071zM275.972 600.511l-205.163-41.759c0 0 0 0 0 0-19.972-3.631-36.312-21.787-36.312-41.759v-502.922c0-23.603 19.972-41.759 41.759-41.759h679.035c23.603 0 41.759 19.972 41.759 41.759v502.922c0 19.972-14.525 38.128-36.312 41.759 0 0 0 0 0 0l-201.532 41.759c-47.206 7.262-96.227 12.709-143.433 12.709-45.39 0-92.596-5.447-139.801-12.709zM461.163 124.823h-88.965c-14.525 0-27.234 12.709-27.234 27.234v96.227c-30.865 21.787-50.837 54.468-52.652 92.596-1.816 34.496 10.894 67.177 34.496 92.596s54.468 39.943 88.965 39.943c70.809 1.816 127.092-54.468 127.092-125.277 0-39.943-19.972-78.071-52.652-101.674v-96.227c-1.816-14.525-12.709-25.418-29.050-25.418zM381.277 159.319h72.624v98.043c0 5.447 3.631 10.894 9.078 14.525 27.234 16.34 43.574 47.206 43.574 78.071 0 50.837-41.759 90.78-90.78 88.965-23.603 0-47.206-10.894-63.546-29.050s-25.418-41.759-23.603-67.177c1.816-30.865 18.156-56.284 43.574-70.809 5.447-3.631 9.078-9.078 9.078-14.525v-98.043z" />
<glyph unicode="&#xe90b;" glyph-name="pantalla" horiz-adv-x="1166" d="M20.259 75.971h401.496v-101.295h-20.259c-11.050 0-20.259-9.209-20.259-20.259s9.209-20.259 20.259-20.259h362.82c11.050 0 20.259 9.209 20.259 20.259s-9.209 20.259-20.259 20.259h-20.259v101.295h401.496c11.050 0 20.259 9.209 20.259 20.259v843.511c0 11.050-9.209 20.259-20.259 20.259h-1125.295c-11.050 0-20.259-9.209-20.259-20.259v-843.511c0-11.050 9.209-20.259 20.259-20.259zM703.54-23.482h-241.266v99.453h241.266v-99.453zM40.518 919.482h1084.777v-802.993h-1084.777v802.993zM1084.777 256.46v602.245c0 11.050-9.209 20.259-20.259 20.259h-963.223c-11.050 0-20.259-9.209-20.259-20.259v-602.245c0-11.050 9.209-20.259 20.259-20.259h965.065c9.209 0 18.417 9.209 18.417 20.259zM1044.259 276.719h-924.547v563.568h924.547v-563.568zM622.504 197.525h-81.036c-11.050 0-20.259-9.209-20.259-20.259s9.209-20.259 20.259-20.259h81.036c11.050 0 20.259 9.209 20.259 20.259s-9.209 20.259-20.259 20.259z" />
<glyph unicode="&#xe90c;" glyph-name="play" d="M954.507 704.511c-67.449 118.547-177.82 202.347-310.675 237.094s-269.796 16.351-388.343-51.098c-118.547-67.449-202.347-177.82-237.094-310.675-36.79-130.81-18.395-269.796 51.098-388.343 67.449-118.547 177.82-202.347 310.675-239.138 44.966-12.263 87.888-18.395 132.854-18.395 87.888 0 175.776 22.483 255.489 69.493 118.547 67.449 202.347 177.82 239.138 310.675 34.747 132.854 16.351 271.84-53.142 390.387zM954.507 328.431c-32.703-118.547-108.327-216.655-214.611-277.972s-228.918-77.669-347.465-44.966c-118.547 32.703-216.655 108.327-277.972 214.611s-77.669 228.918-44.966 347.465c30.659 116.503 106.283 216.655 212.567 277.972 71.537 40.878 149.206 61.317 228.918 61.317 38.834 0 79.713-6.132 118.547-16.351 118.547-32.703 216.655-108.327 277.972-214.611 63.361-104.24 79.713-228.918 47.010-347.465zM758.291 496.032l-329.070 190.084c-18.395 10.22-38.834 10.22-55.186 0-18.395-10.22-28.615-28.615-28.615-49.054v-380.168c0-20.439 10.22-38.834 28.615-49.054 8.176-4.088 18.395-8.176 28.615-8.176s18.395 2.044 28.615 8.176l329.070 190.084c18.395 10.22 28.615 28.615 28.615 49.054-4.088 20.439-14.307 38.834-30.659 49.054zM731.721 444.934l-329.070-190.084c0 0-2.044 0-2.044 0-2.044 0-2.044 2.044-2.044 2.044v380.168c0 0 0 2.044 2.044 2.044 0 0 0 0 2.044 0 0 0 0 0 2.044 0l327.026-190.084c0 0 2.044 0 2.044-2.044s-2.044 0-2.044-2.044zM827.784 690.204c-63.361 81.756-159.425 136.942-261.621 151.25-14.307 2.044-28.615-8.176-30.659-22.483s8.176-28.615 22.483-30.659c89.932-12.263 171.689-59.273 226.874-130.81 6.132-6.132 12.263-10.22 20.439-10.22 6.132 0 12.263 2.044 16.351 6.132 12.263 10.22 14.307 26.571 6.132 36.79z" />
<glyph unicode="&#xe90d;" glyph-name="a-down" horiz-adv-x="480" d="M473.39 134.085c6.715 6.715 6.715 16.787 0 23.502s-20.144 6.715-30.216 0l-188.013-161.154v946.78c0 10.072-10.072 16.787-20.144 16.787s-20.144-6.715-20.144-16.787v-943.423l-177.941 151.082c-6.715 6.715-20.144 6.715-30.216 0-6.715-6.715-6.715-16.787 0-23.502l214.872-181.298c6.715-6.715 20.144-6.715 30.216 0l221.587 188.013z" />
<glyph unicode="&#xe90e;" glyph-name="tw" horiz-adv-x="1241" d="M1234.411 791.671c7.014 14.027 7.014 35.068 0 42.082-14.027 14.027-28.055 14.027-42.082 7.014 0 0 0 0 0 0 7.014 14.027 14.027 35.068 21.041 49.096s0 28.055-14.027 42.082c-14.027 7.014-28.055 14.027-42.082 0-35.068-21.041-77.151-42.082-119.233-49.096-56.11 49.096-126.247 77.151-196.384 77.151-147.288 0-273.534-126.247-273.534-273.534 0-7.014 0-7.014 0-14.027-161.315 21.041-315.616 105.205-420.822 231.452-7.014 7.014-21.041 14.027-28.055 14.027-14.027 0-21.041-7.014-28.055-21.041-21.041-42.082-35.068-91.178-35.068-140.274s14.027-91.178 35.068-133.26c-7.014 0-14.027 0-14.027-7.014-21.041 0-28.055-14.027-28.055-28.055v0c0-84.164 35.068-161.315 98.192-210.411 0 0 0 0-7.014-7.014s-14.027-21.041-7.014-35.068c28.055-77.151 84.164-140.274 161.315-175.342-63.123-28.055-126.247-42.082-203.397-42.082-21.041 0-35.068 0-56.11 0-14.027 0-35.068-7.014-42.082-28.055-7.014-14.027 0-35.068 14.027-42.082 112.219-77.151 252.493-112.219 385.753-112.219 266.521 0 441.863 126.247 533.041 231.452 126.247 140.274 196.384 315.616 196.384 490.959 0 7.014 0 7.014 0 14.027 42.082 28.055 84.164 70.137 112.219 119.233zM1059.068 714.521c-7.014-7.014-14.027-21.041-14.027-35.068 0-7.014 0-21.041 0-28.055 0-154.301-63.123-315.616-168.329-434.849-84.164-98.192-231.452-210.411-476.932-210.411-77.151 0-147.288 14.027-217.425 35.068 84.164 14.027 161.315 49.096 224.438 105.205 14.027 7.014 14.027 28.055 14.027 42.082-7.014 14.027-21.041 28.055-35.068 28.055-63.123 0-126.247 35.068-161.315 84.164 21.041 0 35.068 7.014 56.11 7.014 14.027 7.014 28.055 21.041 28.055 35.068s-14.027 35.068-28.055 35.068c-77.151 14.027-133.26 70.137-154.301 140.274 21.041-7.014 42.082-7.014 63.123-7.014 14.027 0 35.068 7.014 35.068 28.055 7.014 14.027 0 35.068-14.027 42.082-56.11 49.096-84.164 112.219-84.164 175.342 0 14.027 0 35.068 7.014 49.096 126.247-133.26 294.575-210.411 476.932-217.425 14.027 0 21.041 7.014 28.055 14.027s7.014 21.041 7.014 35.068c0 14.027-7.014 28.055-7.014 49.096 0 112.219 91.178 203.397 203.397 203.397 56.11 0 112.219-21.041 147.288-63.123 7.014-7.014 21.041-14.027 35.068-14.027s28.055 7.014 42.082 7.014c-7.014-7.014-14.027-14.027-21.041-14.027-14.027-7.014-21.041-28.055-14.027-42.082s21.041-28.055 42.082-28.055c7.014 0 14.027 0 21.041 0-14.027-7.014-21.041-14.027-35.068-21.041z" />
<glyph unicode="&#xe90f;" glyph-name="in" horiz-adv-x="1069" d="M817.912-64h212.528c19.321 0 32.201 12.881 32.201 32.201v373.535c0 103.044-25.761 186.767-77.283 244.73-51.522 51.522-122.365 83.723-199.648 83.723-70.843 0-122.365-19.321-161.006-51.522v0c0 19.321-12.881 32.201-32.201 32.201h-212.528c-6.44 0-19.321-6.44-25.761-12.881s-6.44-12.881-6.44-25.761c0-57.962 0-637.585 0-644.025s6.44-19.321 12.881-25.761c6.44-6.44 12.881-12.881 25.761-12.881h212.528c19.321 0 32.201 12.881 32.201 32.201v367.094c0 19.321 0 32.201 6.44 38.642 6.44 19.321 25.761 57.962 77.283 57.962 19.321 0 77.283 0 77.283-109.484v-347.774c-6.44-19.321 6.44-32.201 25.761-32.201zM714.868 496.302c-64.403 0-115.925-38.642-141.686-103.044-12.881-12.881-12.881-32.201-12.881-64.403v-328.453h-148.126c0 109.484 0 457.258 0 573.182h141.686v-57.962c0-12.881 12.881-25.761 25.761-32.201s32.201 0 38.642 12.881c32.201 45.082 70.843 90.164 167.447 90.164 135.245 0 212.528-90.164 212.528-257.61v-334.893h-148.126v322.013c0 51.522-12.881 96.604-32.201 122.365-19.321 38.642-57.962 57.962-103.044 57.962zM309.132 811.874c0 83.723-64.403 148.126-154.566 148.126s-154.566-64.403-154.566-148.126 64.403-148.126 154.566-148.126v0c90.164 6.44 154.566 64.403 154.566 148.126 0 0 0 0 0 0zM154.566 734.591v0c-51.522 0-83.723 32.201-83.723 77.283s32.201 77.283 83.723 77.283c51.522 0 83.723-32.201 83.723-77.283s-32.201-77.283-83.723-77.283zM45.082 650.868c-19.321 0-32.201-12.881-32.201-32.201v-644.025c0-19.321 12.881-32.201 32.201-32.201h212.528c19.321 0 32.201 12.881 32.201 32.201v644.025c0 19.321-12.881 32.201-32.201 32.201h-212.528zM225.409 0.403h-141.686v579.623h148.126v-579.623z" />
<glyph unicode="&#xe910;" glyph-name="fb" horiz-adv-x="506" d="M128-64h197.818c17.455 0 29.091 11.636 29.091 29.091v453.818h104.727c17.455 0 29.091 11.636 29.091 29.091l17.455 168.727c0 11.636 0 17.455-5.818 23.273s-11.636 5.818-23.273 5.818h-122.182v69.818c0 11.636 5.818 17.455 11.636 17.455h104.727c17.455 0 29.091 11.636 29.091 29.091v168.727c5.818 17.455-5.818 29.091-23.273 29.091h-151.273c-104.727 0-157.091-46.545-186.182-81.455-40.727-58.182-46.545-116.364-46.545-151.273v-81.455h-64c-17.455 0-29.091-11.636-29.091-29.091v-168.727c0-17.455 11.636-29.091 29.091-29.091h64v-448c0-23.273 17.455-34.909 34.909-34.909zM64 477.091v110.545h64c17.455 0 29.091 11.636 29.091 29.091v110.545c0 17.455 5.818 69.818 34.909 110.545s75.636 58.182 139.636 58.182h116.364v-104.727h-81.455c-34.909 0-75.636-23.273-75.636-75.636v-98.909c0-17.455 11.636-29.091 29.091-29.091h116.364l-5.818-110.545h-104.727c-17.455 0-29.091-11.636-29.091-29.091v-448h-139.636v448c0 17.455-11.636 29.091-29.091 29.091h-64z" />
<glyph unicode="&#xe911;" glyph-name="yt" horiz-adv-x="1344" d="M1329.778 725.333c0 14.222-14.222 106.667-56.889 156.444-56.889 56.889-113.778 64-142.222 71.111 0 0-7.111 0-7.111 0s0 0 0 0c-184.889 7.111-448 7.111-455.111 7.111v0c0 0-270.222 0-448-14.222 0 0 0 0 0 0s-7.111 0-7.111 0c-28.444 0-92.444-7.111-142.222-71.111-42.667-49.778-56.889-142.222-56.889-156.444 0 0 0 0 0 0s-14.222-106.667-14.222-220.444v-99.556c0-106.667 14.222-220.444 14.222-220.444s0 0 0 0c0-14.222 14.222-106.667 56.889-156.444 49.778-56.889 113.778-64 142.222-64 7.111 0 14.222 0 14.222 0s0 0 7.111 0c99.556-7.111 419.556-14.222 433.778-14.222 0 0 270.222 0 448 14.222 0 0 0 0 0 0s7.111 0 7.111 0c28.444 0 92.444 7.111 142.222 71.111 42.667 49.778 56.889 142.222 56.889 156.444 0 0 0 0 0 0 0 7.111 14.222 113.778 14.222 220.444v92.444c7.111 113.778-7.111 220.444-7.111 227.556 0-7.111 0 0 0 0zM1265.778 398.222c0-99.556-14.222-206.222-14.222-213.333 0-21.333-14.222-85.333-42.667-113.778 0 0 0 0 0 0-35.556-35.556-71.111-42.667-92.444-42.667 0 0-7.111 0-7.111 0-170.667-14.222-433.778-14.222-440.889-14.222 0 0-327.111 0-426.667 14.222-7.111 0-14.222 0-21.333 0-28.444 7.111-71.111 7.111-99.556 42.667 0 0 0 0 0 0-21.333 21.333-35.556 78.222-42.667 113.778 0 7.111-14.222 113.778-14.222 213.333v99.556c0 99.556 14.222 206.222 14.222 213.333 0 21.333 14.222 85.333 42.667 113.778 0 0 0 0 0 0 35.556 35.556 71.111 42.667 92.444 42.667 0 0 7.111 0 7.111 0 170.667 14.222 433.778 14.222 440.889 14.222v0c0 0 263.111 0 440.889-14.222 0 0 7.111 0 7.111 0 21.333 0 64-7.111 92.444-42.667 0 0 0 0 0 0 21.333-21.333 35.556-78.222 42.667-113.778 0-7.111 14.222-113.778 14.222-213.333l7.111-99.556zM924.444 483.556l-391.111 234.667c-14.222 7.111-28.444 7.111-35.556 0-14.222-7.111-21.333-21.333-21.333-35.556v-476.444c0-14.222 7.111-28.444 21.333-35.556 7.111 0 14.222-7.111 21.333-7.111s14.222 0 21.333 7.111l384 241.778c14.222 7.111 21.333 21.333 21.333 35.556s-7.111 28.444-21.333 35.556zM547.556 277.333v341.333l284.444-170.667-284.444-170.667z" />
<glyph unicode="&#xe912;" glyph-name="aro" d="M875.163 811.163c-95.256 95.256-226.233 148.837-363.163 148.837s-264.93-53.581-363.163-148.837-148.837-226.233-148.837-363.163c0-136.93 53.581-264.93 148.837-363.163 95.256-95.256 226.233-148.837 363.163-148.837s264.93 53.581 363.163 148.837c95.256 95.256 148.837 226.233 148.837 363.163s-53.581 264.93-148.837 363.163zM851.349 108.651c-89.302-89.302-211.349-139.907-339.349-139.907s-250.047 50.605-339.349 139.907c-89.302 89.302-139.907 211.349-139.907 339.349s50.605 250.047 139.907 339.349c89.302 89.302 211.349 139.907 339.349 139.907s250.047-50.605 339.349-139.907c89.302-89.302 139.907-211.349 139.907-339.349s-47.628-250.047-139.907-339.349zM860.279 730.791c-5.953 5.953-14.884 8.93-23.814 2.977-5.953-5.953-8.93-14.884-2.977-23.814 59.535-74.419 92.279-166.698 92.279-261.953 0-110.14-44.651-214.326-122.047-294.698-77.395-77.395-181.581-122.047-294.698-122.047-101.209 0-202.419 38.698-276.837 107.163-5.953 5.953-17.86 5.953-23.814 0s-5.953-17.86 0-23.814c83.349-74.419 187.535-113.116 297.674-113.116 119.070 0 232.186 47.628 315.535 130.977s130.977 196.465 130.977 315.535c8.93 101.209-26.791 202.419-92.279 282.791zM95.256 448c0 229.209 187.535 416.744 416.744 416.744 101.209 0 202.419-38.698 276.837-107.163 5.953-5.953 17.86-5.953 23.814 0s5.953 17.86 0 23.814c-83.349 74.419-187.535 113.116-297.674 113.116-119.070 0-232.186-47.628-315.535-130.977s-130.977-196.465-130.977-315.535c0-101.209 35.721-202.419 101.209-282.791 2.977-2.977 8.93-5.953 11.907-5.953s5.953 0 8.93 2.977c5.953 5.953 8.93 14.884 2.977 23.814-65.488 74.419-98.233 166.698-98.233 261.953z" />
<glyph unicode="&#xe913;" glyph-name="mensaje" horiz-adv-x="2766" d="M2723.898 191.275h-2680.385c-23.207 0-43.513 18.856-43.513 43.513v681.7c0 23.207 18.856 43.513 43.513 43.513h2680.385c23.207 0 43.513-18.856 43.513-43.513v-681.7c-1.45-23.207-20.306-43.513-43.513-43.513zM1184.997 214.482l200.159-278.482 195.807 278.482z" />
<glyph unicode="&#xe914;" glyph-name="logo" horiz-adv-x="4834" d="M4592.099 835.975h-407.056l203.528-435.677zM4833.789 368.497h-407.056l203.528-429.317zM4833.789 400.298h-407.056l203.528 435.677zM4592.099-64h-407.056l203.528 432.497zM400.696 820.075c248.050 0 372.075-124.025 372.075-365.714 0-34.981-3.18-73.143-6.36-111.304h-613.764c0-178.087 104.944-267.13 311.652-267.13 98.584 0 187.627 9.54 263.95 31.801v-124.025c-76.323-22.261-171.727-31.801-279.851-31.801-298.932-3.18-448.398 146.286-448.398 442.037 0 283.031 133.565 426.137 400.696 426.137zM152.646 467.081h470.658c-3.18 152.646-79.503 228.969-222.609 228.969-155.826 0-238.509-76.323-248.050-228.969zM1202.087 384.398l-327.553 435.677h178.087l235.329-314.832 238.509 314.832h178.087l-324.373-435.677 324.373-435.677h-178.087l-235.329 314.832-235.329-314.832h-178.087l324.373 435.677zM1806.311 212.671c0 178.087 117.665 267.13 352.994 267.13 76.323 0 152.646-6.36 225.789-15.901v82.683c0 98.584-79.503 149.466-235.329 149.466-89.043 0-181.267-12.72-276.671-41.342v124.025c95.404 28.621 184.447 41.342 276.671 41.342 257.59 0 387.975-89.043 387.975-270.311v-601.043h-85.863l-54.062 85.863c-85.863-57.242-181.267-85.863-283.031-85.863-203.528 0-308.472 85.863-308.472 263.95zM2159.304 355.776c-133.565 0-200.348-47.702-200.348-139.925 0-95.404 54.062-139.925 159.006-139.925s197.168 28.621 270.311 85.863v181.267c-76.323 6.36-152.646 12.72-228.969 12.72zM3444.075-25.839c-73.143-15.901-149.466-25.441-232.149-25.441-308.472 0-464.298 149.466-464.298 451.578 0 279.851 155.826 419.776 464.298 419.776 82.683 0 159.006-9.54 232.149-25.441v-124.025c-73.143 15.901-152.646 25.441-241.689 25.441-200.348 0-302.112-98.584-302.112-295.752 0-219.429 101.764-327.553 302.112-327.553 89.043 0 168.547 9.54 241.689 25.441v-124.025zM3641.242 960h95.404l31.801-139.925h235.329v-124.025h-209.888v-499.28c0-82.683 34.981-120.845 104.944-120.845h104.944v-124.025h-146.286c-146.286 0-219.429 79.503-219.429 235.329v772.77z" />
<glyph unicode="&#xe915;" glyph-name="a-left" horiz-adv-x="551" d="M489.495 948.747c5.626 5.626 16.879 11.253 28.132 11.253s16.879-5.626 28.132-11.253c16.879-16.879 16.879-39.385 0-50.637l-450.11-450.11 450.11-450.11c16.879-16.879 16.879-39.385 0-50.637s-39.385-16.879-50.637 0l-483.868 478.242c-16.879 16.879-16.879 39.385 0 50.637l478.242 472.615z" />
</font>
</defs>
</svg>
